<svg width="16" height="15" viewBox="0 0 16 15" fill="none" xmlns="http://www.w3.org/2000/svg">
<path d="M5.46875 7.56253H1.8125C1.65683 7.562 1.50296 7.52917 1.36063 7.46611C1.2183 7.40305 1.0906 7.31114 0.985623 7.1962C0.879131 7.07946 0.798074 6.94186 0.747599 6.79213C0.697124 6.6424 0.678333 6.48381 0.69242 6.32643C0.787939 5.27247 1.11146 4.25188 1.64056 3.33536C2.16966 2.41884 2.89169 1.62831 3.75664 1.01854C3.88441 0.928167 4.02963 0.865446 4.18302 0.834388C4.33641 0.803329 4.49459 0.804616 4.64746 0.838167C4.80032 0.871718 4.9445 0.936794 5.07079 1.02923C5.19707 1.12168 5.30268 1.23945 5.38086 1.37503L7.20898 4.53909C7.24592 4.60308 7.26989 4.67371 7.27952 4.74697C7.28916 4.82022 7.28427 4.89465 7.26514 4.96601C7.24601 5.03738 7.21301 5.10427 7.16803 5.16288C7.12304 5.22149 7.06696 5.27067 7.00297 5.3076C6.93898 5.34454 6.86834 5.36851 6.79509 5.37814C6.72184 5.38778 6.6474 5.38289 6.57604 5.36376C6.50468 5.34463 6.43778 5.31163 6.37917 5.26665C6.32056 5.22166 6.27139 5.16558 6.23445 5.10159L4.40633 1.93753C3.67431 2.45317 3.06318 3.12184 2.61529 3.89717C2.16741 4.6725 1.89348 5.53595 1.8125 6.42768C1.81236 6.42981 1.81273 6.43195 1.81359 6.43391C1.81445 6.43586 1.81576 6.43759 1.81742 6.43893L5.46875 6.43753C5.61793 6.43753 5.76101 6.49679 5.8665 6.60228C5.97198 6.70777 6.03125 6.85084 6.03125 7.00003C6.03125 7.14921 5.97198 7.29228 5.8665 7.39777C5.76101 7.50326 5.61793 7.56253 5.46875 7.56253ZM15.3076 6.32643C15.2121 5.27247 14.8885 4.25188 14.3594 3.33536C13.8303 2.41884 13.1083 1.62831 12.2434 1.01854C12.1156 0.928167 11.9704 0.865446 11.817 0.834388C11.6636 0.803329 11.5054 0.804616 11.3525 0.838167C11.1997 0.871718 11.0555 0.936794 10.9292 1.02923C10.8029 1.12168 10.6973 1.23945 10.6191 1.37503L8.79453 4.53909C8.7576 4.60308 8.73363 4.67371 8.72399 4.74697C8.71436 4.82022 8.71924 4.89465 8.73837 4.96601C8.77701 5.11014 8.87131 5.23301 9.00054 5.3076C9.12978 5.3822 9.28335 5.4024 9.42747 5.36376C9.49883 5.34463 9.56573 5.31163 9.62434 5.26665C9.68295 5.22166 9.73213 5.16558 9.76906 5.10159L11.5972 1.93753C12.3284 2.45367 12.9388 3.12252 13.386 3.8978C13.8333 4.67309 14.1067 5.53629 14.1875 6.42768C14.1875 6.4326 14.1875 6.43612 14.1875 6.43753H10.5312C10.3821 6.43753 10.239 6.49679 10.1335 6.60228C10.028 6.70777 9.96875 6.85084 9.96875 7.00003C9.96875 7.14921 10.028 7.29228 10.1335 7.39777C10.239 7.50326 10.3821 7.56253 10.5312 7.56253H14.1875C14.3432 7.562 14.497 7.52917 14.6394 7.46611C14.7817 7.40305 14.9094 7.31114 15.0144 7.1962C15.1209 7.07946 15.2019 6.94186 15.2524 6.79213C15.3029 6.6424 15.3217 6.48381 15.3076 6.32643ZM9.75289 8.91112C9.71595 8.84713 9.66678 8.79104 9.60817 8.74606C9.54956 8.70108 9.48266 8.66808 9.4113 8.64895C9.33993 8.62982 9.2655 8.62493 9.19225 8.63456C9.119 8.6442 9.04836 8.66817 8.98437 8.7051C8.92038 8.74204 8.8643 8.79121 8.81931 8.84982C8.77433 8.90843 8.74133 8.97533 8.7222 9.04669C8.70307 9.11806 8.69818 9.19249 8.70782 9.26574C8.71745 9.33899 8.74142 9.40963 8.77836 9.47362L10.5952 12.6187C9.7815 12.9935 8.89624 13.1875 8.00035 13.1875C7.10446 13.1875 6.2192 12.9935 5.40547 12.6187L7.22164 9.47362C7.25857 9.40963 7.28254 9.33899 7.29218 9.26574C7.30181 9.19249 7.29693 9.11806 7.2778 9.04669C7.25867 8.97533 7.22567 8.90843 7.18068 8.84982C7.1357 8.79121 7.07961 8.74204 7.01562 8.7051C6.95163 8.66817 6.881 8.6442 6.80775 8.63456C6.73449 8.62493 6.66006 8.62982 6.5887 8.64895C6.51733 8.66808 6.45044 8.70108 6.39183 8.74606C6.33322 8.79104 6.28404 8.84713 6.24711 8.91112L4.43164 12.0562C4.35347 12.1915 4.30433 12.3415 4.28735 12.4968C4.27037 12.6521 4.28592 12.8093 4.33302 12.9582C4.38012 13.1072 4.45772 13.2447 4.56089 13.362C4.66407 13.4793 4.79054 13.5739 4.93226 13.6396C5.89421 14.083 6.94081 14.3125 8 14.3125C9.05918 14.3125 10.1058 14.083 11.0677 13.6396C11.2095 13.5739 11.3359 13.4793 11.4391 13.362C11.5423 13.2447 11.6199 13.1072 11.667 12.9582C11.7141 12.8093 11.7296 12.6521 11.7126 12.4968C11.6957 12.3415 11.6465 12.1915 11.5684 12.0562L9.75289 8.91112ZM8 7.84378C8.16688 7.84378 8.33001 7.79429 8.46876 7.70158C8.60751 7.60887 8.71566 7.47709 8.77952 7.32291C8.84338 7.16874 8.86009 6.99909 8.82754 6.83542C8.79498 6.67175 8.71462 6.5214 8.59662 6.4034C8.47862 6.2854 8.32828 6.20504 8.16461 6.17249C8.00093 6.13993 7.83128 6.15664 7.67711 6.2205C7.52293 6.28436 7.39116 6.39251 7.29845 6.53126C7.20573 6.67002 7.15625 6.83315 7.15625 7.00003C7.15625 7.2238 7.24514 7.43841 7.40338 7.59665C7.56161 7.75488 7.77622 7.84378 8 7.84378Z" fill="white"/>
</svg>
