<svg width="16" height="12" viewBox="0 0 16 12" fill="none" xmlns="http://www.w3.org/2000/svg">
<path d="M13.5589 2.67214C12.8298 1.94135 11.9632 1.36213 11.0091 0.967871C10.055 0.573616 9.03232 0.37213 8 0.375031H7.97187C3.64555 0.389796 0.125 3.96097 0.125 8.32948V9.93753C0.125 10.2359 0.243526 10.522 0.454505 10.733C0.665483 10.944 0.951631 11.0625 1.25 11.0625H14.75C15.0484 11.0625 15.3345 10.944 15.5455 10.733C15.7565 10.522 15.875 10.2359 15.875 9.93753V8.25003C15.8779 7.21319 15.6746 6.18612 15.277 5.22854C14.8794 4.27096 14.2954 3.40198 13.5589 2.67214ZM14.75 9.93753H7.41711L11.2674 4.643C11.3553 4.52235 11.3916 4.37174 11.3684 4.22432C11.3451 4.0769 11.2643 3.94474 11.1437 3.85691C11.023 3.76907 10.8724 3.73277 10.725 3.75598C10.5776 3.77918 10.4454 3.86 10.3576 3.98066L6.02562 9.93753H1.25V8.32948C1.25 8.11292 1.26055 7.89917 1.28023 7.68753H2.9375C3.08668 7.68753 3.22976 7.62827 3.33525 7.52278C3.44074 7.41729 3.5 7.27421 3.5 7.12503C3.5 6.97585 3.44074 6.83277 3.33525 6.72728C3.22976 6.62179 3.08668 6.56253 2.9375 6.56253H1.47992C2.20555 3.83019 4.57367 1.76441 7.4375 1.52394V3.18753C7.4375 3.33671 7.49676 3.47979 7.60225 3.58528C7.70774 3.69077 7.85082 3.75003 8 3.75003C8.14918 3.75003 8.29226 3.69077 8.39775 3.58528C8.50324 3.47979 8.5625 3.33671 8.5625 3.18753V1.52323C9.95796 1.64067 11.2825 2.1886 12.3531 3.09131C13.4237 3.99403 14.1876 5.20697 14.5391 6.56253H13.0625C12.9133 6.56253 12.7702 6.62179 12.6648 6.72728C12.5593 6.83277 12.5 6.97585 12.5 7.12503C12.5 7.27421 12.5593 7.41729 12.6648 7.52278C12.7702 7.62827 12.9133 7.68753 13.0625 7.68753H14.7268C14.7416 7.87386 14.75 8.06089 14.75 8.25003V9.93753Z" fill="white"/>
</svg>
