<svg width="3" height="16" viewBox="0 0 3 16" fill="none" xmlns="http://www.w3.org/2000/svg">
<path d="M2.79163 8C2.79163 8.2225 2.72565 8.44001 2.60203 8.62502C2.47841 8.81002 2.30271 8.95422 2.09714 9.03936C1.89158 9.12451 1.66538 9.14679 1.44715 9.10338C1.22892 9.05998 1.02847 8.95283 0.871131 8.7955C0.713797 8.63816 0.606651 8.43771 0.563243 8.21948C0.519835 8.00125 0.542113 7.77505 0.627262 7.56948C0.712411 7.36391 0.856605 7.18821 1.04161 7.0646C1.22662 6.94098 1.44412 6.875 1.66663 6.875C1.965 6.875 2.25114 6.99353 2.46212 7.20451C2.6731 7.41548 2.79163 7.70163 2.79163 8ZM1.66663 2.75C1.88913 2.75 2.10664 2.68402 2.29164 2.5604C2.47665 2.43679 2.62084 2.26109 2.70599 2.05552C2.79114 1.84995 2.81342 1.62375 2.77001 1.40552C2.7266 1.1873 2.61946 0.986839 2.46212 0.829505C2.30479 0.672171 2.10433 0.565025 1.8861 0.521617C1.66787 0.478209 1.44167 0.500487 1.23611 0.585636C1.03054 0.670785 0.85484 0.814979 0.731223 0.999984C0.607606 1.18499 0.541627 1.4025 0.541627 1.625C0.541627 1.92337 0.660153 2.20952 0.871131 2.4205C1.08211 2.63147 1.36826 2.75 1.66663 2.75ZM1.66663 13.25C1.44412 13.25 1.22662 13.316 1.04161 13.4396C0.856605 13.5632 0.712411 13.7389 0.627262 13.9445C0.542113 14.15 0.519835 14.3762 0.563243 14.5945C0.606651 14.8127 0.713797 15.0132 0.871131 15.1705C1.02847 15.3278 1.22892 15.435 1.44715 15.4784C1.66538 15.5218 1.89158 15.4995 2.09714 15.4144C2.30271 15.3292 2.47841 15.185 2.60203 15C2.72565 14.815 2.79163 14.5975 2.79163 14.375C2.79163 14.0766 2.6731 13.7905 2.46212 13.5795C2.25114 13.3685 1.965 13.25 1.66663 13.25Z" fill="#B8B9BD"/>
</svg>
